#tb 0: 1/25
#media_type 0: video
#codec_id 0: jpegxl
#dimensions 0: 2400x2400
#sar 0: 0/1
0,          0,          0,        1,   197602, 0x6f8fc984
0,          1,          1,        1,    52335, 0x30421469
0,          2,          2,        1,    20784, 0xaecb1df0
0,          3,          3,        1,    11204, 0x6c7b0759
0,          4,          4,        1,     5653, 0xa2ac56da
0,          5,          5,        1,    11204, 0x6c7b0759
